# xmcd CD database file
#
# Track frame offsets:
#	150
#	21945
#	54491
#	73186
#	103619
#	123057
#	144740
#	159074
#	179620
#	199701
#	220647
#
# Disc length: 3128 seconds
#
# Revision: 0
# Processed by: cddbd v1.5.2PL0 Copyright (c) Steve Scherf et al.
# Submitted via: CDex 1.79
#
DISCID=970c360b
DTITLE=Jerry Douglas - What If
DYEAR=2017
DGENRE=Jazz
TTITLE0=Cavebop
TTITLE1=Unfolding
TTITLE2=2:19
TTITLE3=What If
TTITLE4=Hey Joe
TTITLE5=Battle Stick
TTITLE6=Go Ahead and Leave
TTITLE7=Butcher Boy
TTITLE8=Freemantle
TTITLE9=The Last Wild Moor
TTITLE10=Hot Country
EXTD=YEAR: 2017
EXTT0=
EXTT1=
EXTT2=
EXTT3=
EXTT4=
EXTT5=
EXTT6=
EXTT7=
EXTT8=
EXTT9=
EXTT10=
PLAYORDER=
